<?xml version="1.0" standalone="no"?>
<!DOCTYPE svg PUBLIC "-//W3C//DTD SVG 20010904//EN"
 "http://www.w3.org/TR/2001/REC-SVG-20010904/DTD/svg10.dtd">
<svg version="1.0" xmlns="http://www.w3.org/2000/svg"
 width="512.000000pt" height="512.000000pt" viewBox="0 0 512.000000 512.000000"
 preserveAspectRatio="xMidYMid meet">
<metadata>
Created by potrace 1.14, written by Peter Selinger 2001-2017
</metadata>
<g transform="translate(0.000000,512.000000) scale(0.100000,-0.100000)"
fill="#000000" stroke="none">
<path d="M386 5104 c-181 -44 -337 -207 -375 -392 -8 -37 -11 -675 -11 -2155
0 -2313 -4 -2166 62 -2288 65 -123 208 -230 346 -258 37 -8 675 -11 2155 -11
2313 0 2166 -4 2288 62 123 65 230 208 258 346 8 37 11 675 11 2155 0 2313 4
2166 -62 2288 -65 123 -208 230 -346 258 -37 8 -674 11 -2160 10 -1784 -1
-2116 -3 -2166 -15z m1814 -1729 l0 -204 -428 -3 -428 -3 -41 -27 c-87 -57
-116 -196 -61 -290 16 -25 45 -57 65 -70 37 -22 45 -23 353 -29 211 -4 328
-10 355 -18 172 -55 300 -195 351 -386 24 -91 29 -284 10 -375 -44 -210 -201
-371 -411 -425 -49 -12 -146 -15 -577 -15 l-518 0 0 195 0 194 448 3 c442 3
448 3 497 26 63 29 93 57 116 107 45 97 5 204 -96 258 -37 20 -59 22 -325 28
-317 7 -379 16 -484 72 -182 96 -271 279 -269 552 1 206 53 345 174 468 70 70
140 110 234 133 36 9 191 13 543 13 l492 1 0 -205z m953 -497 c2 -549 6 -690
17 -721 18 -50 73 -113 120 -137 57 -29 170 -43 293 -37 172 9 257 59 304 178
16 40 18 106 21 722 l3 677 230 0 229 0 0 -1015 0 -1015 -230 0 -230 0 0 26
c0 19 -4 25 -15 20 -99 -38 -130 -41 -385 -41 -289 0 -326 6 -460 76 -136 70
-241 185 -302 330 -57 136 -58 155 -58 920 l0 699 230 0 229 0 4 -682z"/>
</g>
</svg>
